REM DIRINDEX 1\2\6,1\2\7,1\2\8,1\3\9,1\3\10,1\3\11,1\4\12,1\4\13,1\4\14,1\5\15,1\5\16,1\5\17,1\5\18
REM DIRNAME folder01,folder02,folder03,folder04,folder05,folder06,folder07,folder08,folder09,folder10,folder11,folder12,folder13,folder14,folder15,folder16,folder17,folder18
TITLE ""
FILE "2Q_t_0072-0089.mp3" MP3
  TRACK 01 AUDIO
    TITLE "13:cjc019_2199"
    INDEX 01 00:00:00
  TRACK 02 AUDIO
    TITLE "0:"
    INDEX 01 00:01:05
  TRACK 03 AUDIO
    TITLE "14:cjc019_2200"
    INDEX 01 00:01:52
  TRACK 04 AUDIO
    TITLE "0:"
    INDEX 01 00:08:28
  TRACK 05 AUDIO
    TITLE "13:cjc019_2201"
    INDEX 01 00:09:02
  TRACK 06 AUDIO
    TITLE "0:"
    INDEX 01 00:10:08
  TRACK 07 AUDIO
    TITLE "14:cjc019_2202"
    INDEX 01 00:10:63
  TRACK 08 AUDIO
    TITLE "0:"
    INDEX 01 00:15:60
  TRACK 09 AUDIO
    TITLE "13:cjc019_2203"
    INDEX 01 00:16:34
  TRACK 10 AUDIO
    TITLE "0:"
    INDEX 01 00:17:43
  TRACK 11 AUDIO
    TITLE "14:cjc019_2204"
    INDEX 01 00:18:23
  TRACK 12 AUDIO
    TITLE "0:"
    INDEX 01 00:24:12
  TRACK 13 AUDIO
    TITLE "13:cjc019_2205"
    INDEX 01 00:24:59
  TRACK 14 AUDIO
    TITLE "0:"
    INDEX 01 00:26:01
  TRACK 15 AUDIO
    TITLE "14:cjc019_2206"
    INDEX 01 00:26:56
  TRACK 16 AUDIO
    TITLE "0:"
    INDEX 01 00:31:63
  TRACK 17 AUDIO
    TITLE "13:cjc019_2207"
    INDEX 01 00:32:41
  TRACK 18 AUDIO
    TITLE "0:"
    INDEX 01 00:33:56
  TRACK 19 AUDIO
    TITLE "14:cjc019_2208"
    INDEX 01 00:34:34
  TRACK 20 AUDIO
    TITLE "0:"
    INDEX 01 00:36:21
  TRACK 21 AUDIO
    TITLE "13:cjc019_2209"
    INDEX 01 00:37:01
  TRACK 22 AUDIO
    TITLE "0:"
    INDEX 01 00:38:16
  TRACK 23 AUDIO
    TITLE "14:cjc019_2210"
    INDEX 01 00:38:65
  TRACK 24 AUDIO
    TITLE "0:"
    INDEX 01 00:44:38
  TRACK 25 AUDIO
    TITLE "13:cjc019_2211"
    INDEX 01 00:45:20
  TRACK 26 AUDIO
    TITLE "0:"
    INDEX 01 00:46:25
  TRACK 27 AUDIO
    TITLE "14:cjc019_2212"
    INDEX 01 00:47:01
  TRACK 28 AUDIO
    TITLE "0:"
    INDEX 01 00:49:39
  TRACK 29 AUDIO
    TITLE "13:cjc019_2213"
    INDEX 01 00:50:15
  TRACK 30 AUDIO
    TITLE "0:"
    INDEX 01 00:51:22
  TRACK 31 AUDIO
    TITLE "14:cjc019_2214"
    INDEX 01 00:52:00
  TRACK 32 AUDIO
    TITLE "0:"
    INDEX 01 00:54:19
  TRACK 33 AUDIO
    TITLE "13:cjc019_2215"
    INDEX 01 00:54:66
  TRACK 34 AUDIO
    TITLE "0:"
    INDEX 01 00:56:00
  TRACK 35 AUDIO
    TITLE "14:cjc019_2216"
    INDEX 01 00:56:49
  TRACK 36 AUDIO
    TITLE "0:"
    INDEX 01 01:00:15
  TRACK 37 AUDIO
    TITLE "13:cjc019_2217"
    INDEX 01 01:00:66
  TRACK 38 AUDIO
    TITLE "0:"
    INDEX 01 01:02:12
  TRACK 39 AUDIO
    TITLE "14:cjc019_2218"
    INDEX 01 01:02:63
  TRACK 40 AUDIO
    TITLE "0:"
    INDEX 01 01:04:33
  TRACK 41 AUDIO
    TITLE "13:cjc019_2219"
    INDEX 01 01:05:07
  TRACK 42 AUDIO
    TITLE "0:"
    INDEX 01 01:06:45
  TRACK 43 AUDIO
    TITLE "14:cjc019_2220"
    INDEX 01 01:07:19
  TRACK 44 AUDIO
    TITLE "0:"
    INDEX 01 01:10:59
  TRACK 45 AUDIO
    TITLE "13:cjc019_2221"
    INDEX 01 01:11:37
  TRACK 46 AUDIO
    TITLE "0:"
    INDEX 01 01:12:48
  TRACK 47 AUDIO
    TITLE "14:cjc019_2222"
    INDEX 01 01:13:30
  TRACK 48 AUDIO
    TITLE "0:"
    INDEX 01 01:16:63
  TRACK 49 AUDIO
    TITLE "13:cjc019_2223"
    INDEX 01 01:17:35
  TRACK 50 AUDIO
    TITLE "0:"
    INDEX 01 01:18:49
  TRACK 51 AUDIO
    TITLE "14:cjc019_2224"
    INDEX 01 01:19:27
  TRACK 52 AUDIO
    TITLE "0:"
    INDEX 01 01:21:10
  TRACK 53 AUDIO
    TITLE "13:cjc019_2225"
    INDEX 01 01:21:63
  TRACK 54 AUDIO
    TITLE "0:"
    INDEX 01 01:23:05
  TRACK 55 AUDIO
    TITLE "14:cjc019_2226"
    INDEX 01 01:23:63
  TRACK 56 AUDIO
    TITLE "0:"
    INDEX 01 01:26:11
  TRACK 57 AUDIO
    TITLE "13:cjc019_2227"
    INDEX 01 01:26:66
  TRACK 58 AUDIO
    TITLE "0:"
    INDEX 01 01:27:71
  TRACK 59 AUDIO
    TITLE "14:cjc019_2228"
    INDEX 01 01:28:51
  TRACK 60 AUDIO
    TITLE "0:"
    INDEX 01 01:33:01
  TRACK 61 AUDIO
    TITLE "13:cjc019_2229"
    INDEX 01 01:33:50
  TRACK 62 AUDIO
    TITLE "0:"
    INDEX 01 01:34:61
  TRACK 63 AUDIO
    TITLE "14:cjc019_2230"
    INDEX 01 01:35:37
  TRACK 64 AUDIO
    TITLE "0:"
    INDEX 01 01:38:08
  TRACK 65 AUDIO
    TITLE "13:cjc019_2231"
    INDEX 01 01:38:61
  TRACK 66 AUDIO
    TITLE "0:"
    INDEX 01 01:40:03
  TRACK 67 AUDIO
    TITLE "14:cjc019_2232"
    INDEX 01 01:40:54
  TRACK 68 AUDIO
    TITLE "0:"
    INDEX 01 01:42:20
  TRACK 69 AUDIO
    TITLE "13:cjc019_2233"
    INDEX 01 01:42:71
  TRACK 70 AUDIO
    TITLE "0:"
    INDEX 01 01:44:03
  TRACK 71 AUDIO
    TITLE "14:cjc019_2234"
    INDEX 01 01:44:56
  TRACK 72 AUDIO
    TITLE "0:"
    INDEX 01 01:48:30
